<svg xmlns="http://www.w3.org/2000/svg" height="800" width="1200" version="1.0" viewBox="-11.484375 -5.382875 99.53125 32.29725"><path d="M5.9488 4.57H0V0h18.0813v4.57h-6.2025v16.3575H5.9575L5.9488 4.57" fill="#003"/><path d="M12.8413 5.915h5.24v9.2475s.0962 1.395 1.6012 1.395 1.66-1.395 1.66-1.395V5.915H26.76v15.0125h-5.4175v-1.3962S19.6738 21.42 16.895 21.42c-2.4725 0-3.445-1.8887-3.445-1.8887s-.6087-1.0526-.6087-2.53V5.915m20.0187 0h-5.2988v15.0125h5.415V12.59s.215-1.9087 3.0588-2.26h.9075V6.045h-.9188s-2.3875.23-3.1637 2.0987V5.915m39.6213 0h-5.3v15.0125h5.415V12.59s.2162-1.9087 3.06-2.26h.9062V6.045h-.9175s-2.3875.23-3.1637 2.0987V5.915m-29.5638 0h-5.3213v15.0125h5.29v-8.7688s.3275-1.5537 1.6313-1.5537c1.3062 0 1.6262 1.57 1.6262 1.57v8.7525h5.2575V9.9363s-.0662-4.3675-3.8787-4.3675c0 0-2.6038-.0963-4.605 2.0474V5.915" fill="#003"/><path d="M57.095 11.4275s.555-2.295 2.2088-2.295c1.96 0 2.3825 2.295 2.3825 2.295zm2.06-5.7862s-7.245-.08-7.245 7.9812c0 0-.09 7.8987 7.245 7.8987 0 0 6.4213.515 7.5013-5.7412H61.725s-.6675 2.0638-2.3187 2.0638c-1.6525 0-2.2713-2.3976-2.36-2.945h9.7625s.7712-9.2576-7.6538-9.2576" fill="#003"/></svg>